# xmcd
#
# Track frame offsets:
#	150
#	20389
#	41339
#	64365
#	88487
#	112583
#	134411
#	154748
#
# Disc length: 2408 seconds
#
# Revision: 0
# Processed by: cddbd v1.4PL0 Copyright (c) Steve Scherf et al.
# Submitted via: dBpowerAMP V4.0
#
DISCID=63096608
DTITLE=Friday - Friday Friend
DYEAR=1900
DGENRE=Pop
TTITLE0=เพื่อนเก่า Old Friend (original version)
TTITLE1=เพลงของเธอ Her Song (original version)
TTITLE2=สักคน somebody (winter club version)
TTITLE3=อยู่คนเดียวอีกแล้ว Lonely Boy (blue friday live version)
TTITLE4=หนาวนี้ Sweet winter (someday man version)
TTITLE5=เพลงของเธอ Her Song (sleeper one groove version)
TTITLE6=เพื่อนเก่า Old Song (accoustic version)
TTITLE7=ฉันมีความสุข Happy Me (finale show)
EXTD=
EXTT0=
EXTT1=
EXTT2=
EXTT3=
EXTT4=
EXTT5=
EXTT6=
EXTT7=
PLAYORDER=
